<svg width="40" height="44" viewBox="0 0 40 44" fill="none" xmlns="http://www.w3.org/2000/svg">
<path opacity="0.66" d="M27.3636 0.693904C22.8619 -0.471533 18.1051 -0.162923 13.7917 1.57442L18.095 7.26796C25.8972 3.62674 33.1564 4.36823 39.9589 9.52552C37.4762 5.66583 32.9049 2.09412 27.3636 0.693904Z" fill="white"/>
<path d="M21.4516 34.6038L22.7327 34.9646L21.3424 40.0524L20.0481 39.7213C20.5248 38.01 20.975 36.335 21.4516 34.6038Z" fill="white"/>
<path d="M12.1861 37.0135L9.14404 39.7412C11.5563 41.4562 14.2899 42.6665 17.1812 43.2996C17.2391 43.3111 17.2988 43.3096 17.356 43.2953C17.4132 43.281 17.4666 43.2542 17.5122 43.2169C17.8433 42.8494 18.1743 42.4621 18.5053 42.0583C16.0759 40.8269 13.9251 39.1098 12.1861 37.0135Z" fill="white"/>
<path d="M20.5772 42.9521C19.5312 42.578 19.5312 42.5615 18.8691 43.4751C18.8467 43.5376 18.829 43.6018 18.8162 43.6671L22.9903 43.8425C22.2016 43.505 21.3961 43.2078 20.5772 42.9521Z" fill="white"/>
<path d="M0.0383301 19.6912L8.0093 21.3893C9.11821 15.6892 12.0213 11.227 16.8839 8.02937L12.3887 2.13721C5.22873 5.87111 1.17704 11.6838 0.0383301 19.6912Z" fill="white"/>
<path d="M18.8135 19.0524L19.7503 18.205L25.3048 24.544L31.7597 19.0557L32.5707 19.9858L25.9271 25.6595C25.851 25.2358 25.7086 24.8883 25.2651 24.918C24.8844 24.9445 24.6924 25.1994 24.6891 25.6662L18.8135 19.0524Z" fill="white"/>
<path d="M17.0092 29.5723C17.2906 29.9397 17.5322 30.2542 17.8169 30.6183L13.6792 33.8689C13.411 33.5379 13.1528 33.2069 12.8384 32.8394L17.0092 29.5723Z" fill="white"/>
<path d="M10.6934 21.7568L15.7878 22.965C15.897 22.5214 15.9864 22.1573 16.0989 21.7071L10.9813 20.4989C10.8787 20.9524 10.7927 21.3298 10.6934 21.7568Z" fill="white"/>
<path opacity="0.66" d="M28.6736 7.6123C28.2102 9.31706 27.7667 10.9523 27.3032 12.6537L28.5412 12.9848C28.9947 11.2767 29.4317 9.64477 29.8653 7.95988L28.6736 7.6123Z" fill="white"/>
<path d="M17.5649 10.565L20.137 15.1132L21.2459 14.4777C20.3654 12.9384 19.5279 11.4687 18.6606 9.95593L17.5649 10.565Z" fill="white"/>
<path d="M7.86936 22.6704L0.103623 21.0153C-0.733858 26.6691 3.64223 36.1958 8.27651 38.8771C9.34902 37.9216 10.4281 36.955 11.5139 35.9774C8.7479 32.1197 7.45499 27.399 7.86936 22.6704Z" fill="white"/>
<path d="M25.2342 26.6361C25.8869 26.6361 26.416 26.107 26.416 25.4543C26.416 24.8017 25.8869 24.2726 25.2342 24.2726C24.5816 24.2726 24.0525 24.8017 24.0525 25.4543C24.0525 26.107 24.5816 26.6361 25.2342 26.6361Z" fill="white" stroke="white" stroke-width="0.66204" stroke-miterlimit="10"/>
</svg>
